<svg id="Layer_1" data-name="Layer 1" xmlns="http://www.w3.org/2000/svg" viewBox="0 0 15.8 11.5"><title>inistruction</title><path d="M1.7,5.4A14.7,14.7,0,0,1,5,4.7a3.6,3.6,0,0,1,3.1.6v8.6a5.7,5.7,0,0,0-3.2-.4,15,15,0,0,0-3.2.7Zm7.4-.1a3.7,3.7,0,0,1,3.1-.6,14.7,14.7,0,0,1,3.3.7v8.8a15,15,0,0,0-3.2-.7,5.7,5.7,0,0,0-3.2.4Zm-.5-.8a5.8,5.8,0,0,0-3.7-.7A13,13,0,0,0,1,4.8c-.1,0-.2,0-.2.1a.4.4,0,0,0-.1.3v9.6c0,.1,0,.2.1.2v.2h.5A15.8,15.8,0,0,1,5,14.3c1.4-.1,2.6.1,3.2.8H9c.6-.7,1.8-.9,3.2-.8a15.8,15.8,0,0,1,3.6.9h.5V15c.1,0,.1-.1.1-.2V5.2a.4.4,0,0,0-.1-.3c0-.1-.1-.1-.2-.1a12.3,12.3,0,0,0-3.9-1A5.8,5.8,0,0,0,8.6,4.5Z" transform="translate(-0.7 -3.7)"/></svg>