<svg id="Layer_1" data-name="Layer 1" xmlns="http://www.w3.org/2000/svg" viewBox="0 0 17.7 17.7"><defs><style>.cls-1{fill:none;stroke:#000;stroke-linecap:round;stroke-linejoin:round;}</style></defs><title>progress</title><path class="cls-1" d="M17.7,13.2a10,10,0,0,1-2.4,3.3,9.6,9.6,0,0,1-3.7,1.7,9,9,0,0,1-4-.2,8.4,8.4,0,0,1-3.5-2.1A9.8,9.8,0,0,1,2,12.5a9,9,0,0,1-.2-4A8.4,8.4,0,0,1,3.5,4.8,7,7,0,0,1,6.7,2.4" transform="translate(-1.2 -1.2)"/><path class="cls-1" d="M18.3,10a8.7,8.7,0,0,0-.6-3.2,8.3,8.3,0,0,0-4.5-4.5A8.7,8.7,0,0,0,10,1.7V10Z" transform="translate(-1.2 -1.2)"/></svg>