<svg id="Layer_1" data-name="Layer 1" xmlns="http://www.w3.org/2000/svg" viewBox="0 0 19.3 19.3"><defs><style>.cls-1{fill:none;stroke:#000;stroke-linecap:round;stroke-linejoin:round;}</style></defs><title>settings</title><path class="cls-1" d="M10,12.5A2.5,2.5,0,1,0,7.5,10,2.5,2.5,0,0,0,10,12.5Z" transform="translate(-0.3 -0.3)"/><path class="cls-1" d="M16.2,12.5a1.1,1.1,0,0,0-.1.8.9.9,0,0,0,.3.7h.1l.4.5c0,.2.1.4.1.6s-.1.5-.1.7l-.4.5-.5.4H14.7l-.6-.4h0l-.7-.4h-.8a1,1,0,0,0-.6.5,1.1,1.1,0,0,0-.3.8h0a1.5,1.5,0,0,1-.5,1.2,1.6,1.6,0,0,1-1.1.5,1.7,1.7,0,0,1-1.2-.5,1.8,1.8,0,0,1-.5-1.2h0a.9.9,0,0,0-.3-.7c-.1-.3-.3-.4-.6-.5a1.1,1.1,0,0,0-.8-.1.9.9,0,0,0-.7.3H5.9l-.5.4H4.1l-.5-.4L3.2,16a2,2,0,0,1-.1-.7,1.3,1.3,0,0,1,.1-.6l.4-.6h0a2.5,2.5,0,0,0,.4-.7,1.9,1.9,0,0,0-.1-.8,1,1,0,0,0-.5-.6,1.1,1.1,0,0,0-.8-.3H2.5a1.5,1.5,0,0,1-1.2-.5,1.6,1.6,0,0,1-.5-1.1,1.7,1.7,0,0,1,.5-1.2,1.8,1.8,0,0,1,1.2-.5h.1a.9.9,0,0,0,.7-.3c.3-.1.4-.3.5-.6a1.1,1.1,0,0,0,.1-.8A.9.9,0,0,0,3.6,6H3.5l-.4-.5c0-.2-.1-.4-.1-.6s.1-.5.1-.7l.4-.5L4,3.2H5.3l.6.4h0l.7.4h.9a1.5,1.5,0,0,0,.6-.5,1.1,1.1,0,0,0,.2-.8h0a1.8,1.8,0,0,1,.5-1.2A1.8,1.8,0,0,1,10,.8a1.8,1.8,0,0,1,1.2.5,1.8,1.8,0,0,1,.5,1.2h0a1,1,0,0,0,.2.7c.1.3.4.4.6.5a1.1,1.1,0,0,0,.8.1.9.9,0,0,0,.7-.3h.1l.5-.4h1.3l.5.4.4.5a2,2,0,0,1,.1.7,1.3,1.3,0,0,1-.1.6,2.1,2.1,0,0,1-.4.6h0a2.5,2.5,0,0,0-.4.7,1.9,1.9,0,0,0,.1.8h0a1.5,1.5,0,0,0,.5.6,1.1,1.1,0,0,0,.8.2h.1A1.7,1.7,0,0,1,19.2,10a1.7,1.7,0,0,1-1.7,1.7h-.1a1,1,0,0,0-.7.2c-.3.1-.4.4-.5.6Z" transform="translate(-0.3 -0.3)"/></svg>