<svg id="Layer_1" data-name="Layer 1" xmlns="http://www.w3.org/2000/svg" viewBox="0 0 17.5 19.6"><defs><style>.cls-1{fill-rule:evenodd;}</style></defs><title>user</title><path class="cls-1" d="M6.3,4.8A3.6,3.6,0,0,1,10,1.1a3.6,3.6,0,0,1,3.7,3.7A3.6,3.6,0,0,1,10,8.5,3.6,3.6,0,0,1,6.3,4.8ZM10,.2A4.7,4.7,0,0,0,5.4,4.8,4.7,4.7,0,0,0,10,9.4a4.7,4.7,0,0,0,4.6-4.6A4.7,4.7,0,0,0,10,.2ZM5.8,12.7A4.8,4.8,0,0,0,2.6,14a4.6,4.6,0,0,0-1.3,3.3v2.1a.4.4,0,0,0,.4.4.4.4,0,0,0,.4-.4V17.3a3.9,3.9,0,0,1,1.1-2.7,3.6,3.6,0,0,1,2.6-1.1h8.4a3.6,3.6,0,0,1,2.6,1.1,3.9,3.9,0,0,1,1.1,2.7v2.1a.4.4,0,0,0,.4.4.4.4,0,0,0,.4-.4V17.3A4.6,4.6,0,0,0,17.4,14a4.8,4.8,0,0,0-3.2-1.3Z" transform="translate(-1.3 -0.2)"/></svg>